<svg width="142" height="231" viewBox="0 0 142 231" fill="none" xmlns="http://www.w3.org/2000/svg">
<path d="M17.5993 217.099C27.0103 217.099 34.6393 209.47 34.6393 200.059C34.6393 190.648 27.0103 183.019 17.5993 183.019C8.18839 183.019 0.559326 190.648 0.559326 200.059C0.559326 209.47 8.18839 217.099 17.5993 217.099Z" fill="#D2AC47"/>
<path d="M66.0993 118.299C54.6693 111.299 45.9293 106.319 39.7293 101.379C4.81933 73.5891 18.4193 39.3992 18.4193 39.3992C0.569332 52.7792 -4.48067 79.3392 4.02933 99.1092C12.6693 119.169 34.8193 131.339 52.2993 142.659C62.2293 149.089 75.6393 155.539 83.8093 164.399C95.6493 177.239 98.8393 195.399 89.9493 210.139C79.4093 227.589 58.7393 232.089 39.7693 223.919C39.7693 223.919 70.3293 239.359 97.5193 222.739C97.5193 222.739 116.269 211.249 117.429 183.969C118.579 156.679 100.089 139.109 66.0993 118.299Z" fill="#D2AC47"/>
<path d="M89.0094 87.6491C76.2594 79.8391 61.8694 72.6491 51.9994 60.9291C41.8094 48.8091 39.5894 30.7491 49.7794 17.7991C56.3794 9.41911 66.9094 5.2191 77.4494 5.5691C98.4894 6.2591 122.069 20.8291 123.229 58.9791H129.719V2.32911C129.719 2.32911 124.729 2.32911 124.689 2.32911C124.689 2.32911 123.799 6.1891 123.719 6.5091C123.259 8.4991 122.739 10.9891 121.219 12.4591C119.499 14.1191 116.879 14.2291 114.679 13.6591C105.889 11.3491 95.7194 -6.22089 58.4994 2.32911C28.9394 9.11911 18.2694 42.5891 27.9294 68.9891C39.4494 100.459 75.8794 108.039 98.9594 128.339C135.259 158.599 124.209 190.889 124.209 190.899C127.819 187.919 130.739 184.079 133.319 180.199C136.829 174.909 139.959 168.969 141.089 162.689C147.539 126.859 115.609 103.929 89.0094 87.6491Z" fill="#D2AC47"/>
</svg>
