<svg width="1022" height="289" viewBox="0 0 1022 289" fill="none" xmlns="http://www.w3.org/2000/svg">
<path d="M17.5996 217.099C27.0105 217.099 34.6396 209.47 34.6396 200.059C34.6396 190.648 27.0105 183.019 17.5996 183.019C8.18864 183.019 0.55957 190.648 0.55957 200.059C0.55957 209.47 8.18864 217.099 17.5996 217.099Z" fill="#D2AC47"/>
<path d="M66.0993 118.299C54.6693 111.299 45.9293 106.319 39.7293 101.379C4.81933 73.5891 18.4193 39.3992 18.4193 39.3992C0.569332 52.7792 -4.48067 79.3392 4.02933 99.1092C12.6693 119.169 34.8193 131.339 52.2993 142.659C62.2293 149.089 75.6393 155.539 83.8093 164.399C95.6493 177.239 98.8393 195.399 89.9493 210.139C79.4093 227.589 58.7393 232.089 39.7693 223.919C39.7693 223.919 70.3293 239.359 97.5193 222.739C97.5193 222.739 116.269 211.249 117.429 183.969C118.579 156.679 100.089 139.109 66.0993 118.299Z" fill="#D2AC47"/>
<path d="M89.0094 87.6491C76.2594 79.8391 61.8694 72.6491 51.9994 60.9291C41.8094 48.8091 39.5894 30.7491 49.7794 17.7991C56.3794 9.41911 66.9094 5.2191 77.4494 5.5691C98.4894 6.2591 122.069 20.8291 123.229 58.9791H129.719V2.32911C129.719 2.32911 124.729 2.32911 124.689 2.32911C124.689 2.32911 123.799 6.1891 123.719 6.5091C123.259 8.4991 122.739 10.9891 121.219 12.4591C119.499 14.1191 116.879 14.2291 114.679 13.6591C105.889 11.3491 95.7194 -6.22089 58.4994 2.32911C28.9394 9.11911 18.2694 42.5891 27.9294 68.9891C39.4494 100.459 75.8794 108.039 98.9594 128.339C135.259 158.599 124.209 190.889 124.209 190.899C127.819 187.919 130.739 184.079 133.319 180.199C136.829 174.909 139.959 168.969 141.089 162.689C147.539 126.859 115.609 103.929 89.0094 87.6491Z" fill="#D2AC47"/>
<path d="M341.741 116.548C337.914 107.748 332.047 100.86 324.139 95.8859C316.359 90.7841 307.176 88.2332 296.589 88.2332C286.641 88.2332 277.712 90.529 269.805 95.1206C261.897 99.7123 255.647 106.281 251.055 114.827C246.464 123.245 244.168 133.066 244.168 144.29C244.168 155.514 246.464 165.399 251.055 173.944C255.647 182.49 261.897 189.058 269.805 193.65C277.712 198.242 286.641 200.538 296.589 200.538C305.9 200.538 314.254 198.561 321.652 194.607C329.177 190.525 335.172 184.786 339.636 177.388C344.228 169.863 346.842 161.126 347.48 151.177H291.232V140.272H361.638V150.029C361 161.764 357.811 172.414 352.072 181.98C346.332 191.418 338.616 198.879 328.922 204.364C319.356 209.848 308.579 212.591 296.589 212.591C284.217 212.591 272.993 209.721 262.917 203.981C252.841 198.114 244.869 190.015 239.002 179.684C233.263 169.225 230.393 157.427 230.393 144.29C230.393 131.152 233.263 119.418 239.002 109.087C244.869 98.6282 252.841 90.529 262.917 84.7894C272.993 78.9223 284.217 75.9887 296.589 75.9887C310.874 75.9887 323.374 79.56 334.088 86.7026C344.802 93.8452 352.582 103.794 357.429 116.548H341.741ZM457.341 211.251L424.243 155.386H399.562V211.251H386.17V77.5193H426.347C441.27 77.5193 452.558 81.0906 460.211 88.2332C467.991 95.3757 471.881 104.75 471.881 116.357C471.881 126.051 469.075 134.341 463.463 141.229C457.979 147.989 449.816 152.389 438.974 154.43L473.412 211.251H457.341ZM399.562 144.481H426.538C436.997 144.481 444.841 141.93 450.071 136.828C455.428 131.726 458.106 124.903 458.106 116.357C458.106 107.556 455.555 100.796 450.453 96.0772C445.352 91.2305 437.316 88.8071 426.347 88.8071H399.562V144.481ZM558.532 212.591C546.16 212.591 534.936 209.721 524.86 203.981C514.784 198.114 506.812 190.015 500.945 179.684C495.206 169.225 492.336 157.427 492.336 144.29C492.336 131.152 495.206 119.418 500.945 109.087C506.812 98.6282 514.784 90.529 524.86 84.7894C534.936 78.9223 546.16 75.9887 558.532 75.9887C571.032 75.9887 582.32 78.9223 592.396 84.7894C602.472 90.529 610.38 98.6282 616.119 109.087C621.859 119.418 624.729 131.152 624.729 144.29C624.729 157.427 621.859 169.225 616.119 179.684C610.38 190.015 602.472 198.114 592.396 203.981C582.32 209.721 571.032 212.591 558.532 212.591ZM558.532 200.92C568.481 200.92 577.409 198.624 585.317 194.033C593.225 189.441 599.475 182.872 604.066 174.327C608.658 165.654 610.954 155.641 610.954 144.29C610.954 132.938 608.658 122.989 604.066 114.444C599.475 105.898 593.225 99.3297 585.317 94.738C577.409 90.1463 568.481 87.8505 558.532 87.8505C548.584 87.8505 539.655 90.1463 531.748 94.738C523.84 99.3297 517.59 105.898 512.998 114.444C508.407 122.989 506.111 132.938 506.111 144.29C506.111 155.641 508.407 165.654 512.998 174.327C517.59 182.872 523.84 189.441 531.748 194.033C539.655 198.624 548.584 200.92 558.532 200.92ZM662.052 77.5193V161.7C662.052 174.965 665.177 184.786 671.427 191.163C677.804 197.54 686.478 200.729 697.447 200.729C708.416 200.729 716.961 197.604 723.083 191.354C729.333 184.977 732.458 175.092 732.458 161.7V77.5193H745.85V161.508C745.85 178.472 741.322 191.227 732.267 199.772C723.338 208.318 711.668 212.591 697.255 212.591C682.843 212.591 671.108 208.318 662.052 199.772C653.124 191.227 648.66 178.472 648.66 161.508V77.5193H662.052ZM861.241 115.974C861.241 127.454 857.479 136.701 849.953 143.716C842.428 150.731 831.14 154.238 816.09 154.238H789.114V211.251H775.722V77.5193H816.09C831.013 77.5193 842.237 81.0268 849.762 88.0418C857.415 95.0569 861.241 104.368 861.241 115.974ZM816.09 142.759C837.008 142.759 847.466 133.831 847.466 115.974C847.466 107.046 844.979 100.286 840.005 95.6946C835.031 91.1029 827.059 88.8071 816.09 88.8071H789.114V142.759H816.09Z" fill="black"/>
<path d="M1001.84 198.599C1012.84 198.599 1021.76 189.681 1021.76 178.679C1021.76 167.678 1012.84 158.759 1001.84 158.759C990.838 158.759 981.919 167.678 981.919 178.679C981.919 189.681 990.838 198.599 1001.84 198.599Z" fill="#D2AC47"/>
</svg>
