<svg width="313" height="652" viewBox="0 0 313 652" fill="none" xmlns="http://www.w3.org/2000/svg">
<path d="M34.6274 426.903C53.1345 426.903 68.1374 411.9 68.1374 393.393C68.1374 374.886 53.1345 359.883 34.6274 359.883C16.1203 359.883 1.11743 374.886 1.11743 393.393C1.11743 411.9 16.1203 426.903 34.6274 426.903Z" fill="#D2AC47"/>
<path d="M129.987 232.623C107.507 218.863 90.3274 209.063 78.1274 199.363C9.4874 144.723 36.2174 77.4934 36.2174 77.4934C1.11739 103.793 -8.81259 156.023 7.92741 194.893C24.9074 234.333 68.4674 258.273 102.847 280.523C122.377 293.163 148.737 305.853 164.807 323.263C188.097 348.513 194.367 384.213 176.877 413.193C156.157 447.513 115.507 456.353 78.2174 440.293C78.2174 440.293 138.297 470.643 191.767 437.973C191.767 437.973 228.647 415.383 230.917 361.733C233.187 308.093 196.817 273.543 129.987 232.623Z" fill="#D2AC47"/>
<path d="M175.027 172.343C149.947 156.993 121.657 142.853 102.257 119.803C82.2174 95.9833 77.8474 60.4533 97.8874 35.0033C110.867 18.5233 131.577 10.2633 152.297 10.9533C193.667 12.3133 240.047 40.9633 242.317 115.973H255.067V4.58332C255.067 4.58332 245.247 4.58332 245.167 4.58332C245.167 4.58332 243.417 12.1633 243.267 12.8133C242.357 16.7133 241.337 21.6333 238.357 24.5133C234.977 27.7833 229.817 28.0033 225.497 26.8633C208.217 22.3133 188.217 -12.2367 115.017 4.58332C56.8874 17.9433 35.9174 83.7533 54.9074 135.663C77.5574 197.543 149.197 212.463 194.577 252.363C265.957 311.873 244.227 375.363 244.217 375.383C251.317 369.523 257.057 361.973 262.127 354.343C269.037 343.943 275.187 332.253 277.417 319.903C290.127 249.453 227.337 204.363 175.027 172.343Z" fill="#D2AC47"/>
<path d="M58.4191 587.399C56.9906 584.114 54.8003 581.543 51.8482 579.686C48.9437 577.781 45.5154 576.829 41.5634 576.829C37.8494 576.829 34.5163 577.686 31.5642 579.4C28.6121 581.114 26.2789 583.566 24.5648 586.756C22.8506 589.899 21.9936 593.565 21.9936 597.756C21.9936 601.946 22.8506 605.636 24.5648 608.826C26.2789 612.016 28.6121 614.468 31.5642 616.183C34.5163 617.897 37.8494 618.754 41.5634 618.754C45.0393 618.754 48.158 618.016 50.9197 616.54C53.729 615.016 55.9669 612.873 57.6334 610.112C59.3476 607.302 60.3237 604.041 60.5618 600.327H39.5635V596.256H65.847V599.898C65.609 604.279 64.4186 608.255 62.2759 611.826C60.1332 615.349 57.2525 618.135 53.6338 620.182C50.0626 622.23 46.0392 623.253 41.5634 623.253C36.9447 623.253 32.7546 622.182 28.993 620.039C25.2314 617.849 22.2554 614.826 20.0652 610.969C17.9225 607.064 16.8511 602.66 16.8511 597.756C16.8511 592.851 17.9225 588.471 20.0652 584.614C22.2554 580.709 25.2314 577.686 28.993 575.543C32.7546 573.353 36.9447 572.258 41.5634 572.258C46.8962 572.258 51.5625 573.591 55.5622 576.257C59.5619 578.924 62.4664 582.638 64.2757 587.399H58.4191ZM101.575 622.753L89.2184 601.898H80.0049V622.753H75.0053V572.829H90.0041C95.575 572.829 99.789 574.162 102.646 576.829C105.55 579.495 107.003 582.995 107.003 587.328C107.003 590.947 105.955 594.042 103.86 596.613C101.813 599.136 98.7652 600.779 94.718 601.541L107.574 622.753H101.575ZM80.0049 597.827H90.0755C93.9799 597.827 96.9082 596.875 98.8605 594.97C100.86 593.065 101.86 590.518 101.86 587.328C101.86 584.042 100.908 581.519 99.0033 579.757C97.0987 577.948 94.099 577.043 90.0041 577.043H80.0049V597.827ZM139.351 623.253C134.732 623.253 130.542 622.182 126.781 620.039C123.019 617.849 120.043 614.826 117.853 610.969C115.71 607.064 114.639 602.66 114.639 597.756C114.639 592.851 115.71 588.471 117.853 584.614C120.043 580.709 123.019 577.686 126.781 575.543C130.542 573.353 134.732 572.258 139.351 572.258C144.017 572.258 148.231 573.353 151.993 575.543C155.754 577.686 158.706 580.709 160.849 584.614C162.992 588.471 164.063 592.851 164.063 597.756C164.063 602.66 162.992 607.064 160.849 610.969C158.706 614.826 155.754 617.849 151.993 620.039C148.231 622.182 144.017 623.253 139.351 623.253ZM139.351 618.897C143.065 618.897 146.398 618.04 149.35 616.325C152.302 614.611 154.635 612.159 156.35 608.969C158.064 605.731 158.921 601.993 158.921 597.756C158.921 593.518 158.064 589.804 156.35 586.614C154.635 583.423 152.302 580.971 149.35 579.257C146.398 577.543 143.065 576.686 139.351 576.686C135.637 576.686 132.304 577.543 129.352 579.257C126.4 580.971 124.067 583.423 122.352 586.614C120.638 589.804 119.781 593.518 119.781 597.756C119.781 601.993 120.638 605.731 122.352 608.969C124.067 612.159 126.4 614.611 129.352 616.325C132.304 618.04 135.637 618.897 139.351 618.897ZM177.997 572.829V604.255C177.997 609.207 179.163 612.873 181.496 615.254C183.877 617.635 187.115 618.825 191.21 618.825C195.305 618.825 198.495 617.659 200.781 615.325C203.114 612.945 204.28 609.255 204.28 604.255V572.829H209.28V604.184C209.28 610.516 207.589 615.278 204.209 618.468C200.876 621.658 196.519 623.253 191.138 623.253C185.758 623.253 181.377 621.658 177.997 618.468C174.664 615.278 172.997 610.516 172.997 604.184V572.829H177.997ZM252.357 587.185C252.357 591.47 250.952 594.922 248.143 597.541C245.334 600.16 241.12 601.469 235.501 601.469H225.431V622.753H220.431V572.829H235.501C241.072 572.829 245.262 574.138 248.072 576.757C250.929 579.376 252.357 582.852 252.357 587.185ZM235.501 597.184C243.31 597.184 247.215 593.851 247.215 587.185C247.215 583.852 246.286 581.328 244.429 579.614C242.572 577.9 239.596 577.043 235.501 577.043H225.431V597.184H235.501Z" fill="black"/>
<path d="M304.847 618.433C308.956 618.433 312.287 615.102 312.287 610.993C312.287 606.884 308.956 603.553 304.847 603.553C300.738 603.553 297.407 606.884 297.407 610.993C297.407 615.102 300.738 618.433 304.847 618.433Z" fill="#D2AC47"/>
</svg>
